<svg xmlns="http://www.w3.org/2000/svg" viewBox="1200 630" width="1200" height="630">
  <defs>
    <linearGradient id="bg" x1="0%" y1="0%" x2="100%" y2="100%">
      <stop offset="0%" style="stop-color:#1e1b4b"/>
      <stop offset="100%" style="stop-color:#0f172a"/>
    </linearGradient>
    <linearGradient id="grad" x1="0%" y1="0%" x2="100%" y2="0%">
      <stop offset="0%" style="stop-color:#8b5cf6"/>
      <stop offset="100%" style="stop-color:#06b6d4"/>
    </linearGradient>
  </defs>
  
  <!-- Background -->
  <rect width="1200" height="630" fill="url(#bg)"/>
  
  <!-- Logo circle -->
  <circle cx="200" cy="315" r="120" fill="url(#grad)"/>
  
  <!-- Book icon -->
  <path d="M160 265 L160 365 Q160 385 180 385 L240 385 Q260 385 260 365 L260 265 Q260 245 240 245 L180 245 Q160 245 160 265" fill="none" stroke="white" stroke-width="12" stroke-linecap="round"/>
  <path d="M160 295 L260 295" fill="none" stroke="white" stroke-width="8" stroke-linecap="round"/>
  <path d="M160 325 L240 325" fill="none" stroke="white" stroke-width="8" stroke-linecap="round"/>
  <path d="M160 355 L220 355" fill="none" stroke="white" stroke-width="8" stroke-linecap="round"/>
  
  <!-- Text -->
  <text x="450" y="250" font-family="system-ui, -apple-system, sans-serif" font-size="72" font-weight="bold" fill="white">
    Schema.org Agent
  </text>
  
  <text x="450" y="340" font-family="system-ui, -apple-system, sans-serif" font-size="36" fill="#94a3b8">
    Ask anything about schema.org vocabulary,
  </text>
  <text x="450" y="395" font-family="system-ui, -apple-system, sans-serif" font-size="36" fill="#94a3b8">
    taxonomy, and structured data.
  </text>
  
  <!-- Features -->
  <rect x="450" y="430" width="700" height="4" rx="2" fill="#475569"/>
  
  <text x="450" y="480" font-family="system-ui, -apple-system, sans-serif" font-size="28" fill="#a78bfa">
    ✓ 12+ AI Providers
  </text>
  <text x="700" y="480" font-family="system-ui, -apple-system, sans-serif" font-size="28" fill="#a78bfa">
    ✓ Streaming Responses
  </text>
  
  <text x="450" y="530" font-family="system-ui, -apple-system, sans-serif" font-size="28" fill="#22d3ee">
    ✓ Grounded in Official Docs
  </text>
  <text x="720" y="530" font-family="system-ui, -apple-system, sans-serif" font-size="28" fill="#22d3ee">
    ✓ Free to Use
  </text>
  
  <!-- URL -->
  <text x="450" y="590" font-family="system-ui, -apple-system, sans-serif" font-size="24" fill="#64748b">
    github.com/opendataworld/schemadb
  </text>
</svg>